<svg width="100" height="100" fill="none" xmlns="http://www.w3.org/2000/svg"><path d="M50 10l17.4 9.862L84.641 30l.159 20-.159 20L67.4 80.138 50 90l-17.4-9.862L15.359 70 15.2 50l.159-20L32.6 19.862 50 10z" fill="#151719"/><path d="M30.833 43.333h38.334" stroke="#DEA515" stroke-linecap="round" stroke-linejoin="round"/><path d="M36.25 39.583a.417.417 0 110-.833m0 .833a.417.417 0 100-.833m5.291.833a.417.417 0 110-.833m0 .833a.417.417 0 100-.833m5.292.833a.417.417 0 110-.833m0 .833a.417.417 0 100-.833m.25 21.25a.417.417 0 110-.833m0 .833a.417.417 0 100-.833m5.834.833a.417.417 0 110-.833m0 .833a.417.417 0 100-.833" stroke="#DEA515"/><path d="M65.833 35H34.167a3.333 3.333 0 00-3.334 3.333v23.334A3.333 3.333 0 0034.167 65h31.666a3.333 3.333 0 003.334-3.333V38.333A3.333 3.333 0 0065.833 35z" stroke="#DEA515" stroke-linecap="round" stroke-linejoin="round"/><path d="M56.666 47.5l-2.3 8.617a.85.85 0 01-.783.55h-6.8a.85.85 0 01-.767-.5l-1.783-5A.832.832 0 0145 50h11" stroke="#DEA515" stroke-linecap="round" stroke-linejoin="round"/><path d="M28.5 12.76L50 .576 71.497 12.76l.006.004 21.3 12.524L93 49.996v.008l-.197 24.709-21.3 12.524-.006.004L50 99.425 28.503 87.241l-.006-.004-21.3-12.524L7 50.004V50l.196-24.713L28.5 12.761z" stroke="#151719"/></svg>