<svg width="101" height="100" fill="none" xmlns="http://www.w3.org/2000/svg"><path d="M50.5 10l17.4 9.862L85.141 30l.159 20-.159 20L67.9 80.138 50.5 90l-17.4-9.862L15.859 70 15.7 50l.159-20L33.1 19.862 50.5 10z" fill="#151719"/><path d="M57.167 60.24v7.633c0 .917-.53 1.137-1.179.489L50.5 62.873l-5.488 5.489c-.649.648-1.179.428-1.179.213v-8.333m6.294-20.512c.205-.41.54-.41.745 0l1.57 3.143H55.5c.458 0 .532.224.167.5l-2.577 1.904 1.062 3.64c.128.44-.084.598-.469.351L50.5 47.237l-3.183 1.968c-.39.242-.602.082-.47-.36l1.06-3.558-2.574-1.915c-.368-.274-.293-.5.167-.5h3.055l1.572-3.142z" stroke="#DEA515" stroke-linecap="round" stroke-linejoin="round"/><path d="M37.167 44.54a13.333 13.333 0 1026.666 0 13.333 13.333 0 00-26.666 0z" stroke="#DEA515" stroke-linecap="round" stroke-linejoin="round"/><path d="M41.333 44.54a9.167 9.167 0 1018.334 0 9.167 9.167 0 00-18.334 0z" stroke="#DEA515" stroke-linecap="round" stroke-linejoin="round"/><path d="M29 12.76L50.5.576 71.997 12.76l.006.004 21.3 12.524.197 24.709v.008l-.197 24.709-21.3 12.524-.006.004L50.5 99.425 29.003 87.241l-.006-.004-21.3-12.524L7.5 50.004V50l.196-24.713L29 12.761z" stroke="#151719"/></svg>