<svg width="100" height="100" fill="none" xmlns="http://www.w3.org/2000/svg"><path d="M28.5 12.76L50 .576 71.497 12.76l.006.004 21.3 12.524L93 49.996v.008l-.197 24.709-21.3 12.524-.006.004L50 99.425 28.503 87.241l-.006-.004-21.3-12.524L7 50.004V50l.196-24.713L28.5 12.761z" stroke="#151719"/><path d="M50 10l17.4 9.862L84.641 30l.159 20-.159 20L67.4 80.138 50 90l-17.4-9.862L15.359 70 15.2 50l.159-20L32.6 19.862 50 10z" fill="#151719"/><path d="M50.833 40.833v10m-5-10v10m-5-10v10m-5-10v10M52.5 60a4.167 4.167 0 108.333 0 4.167 4.167 0 00-8.333 0zm-18.333 0a4.167 4.167 0 108.333 0 4.167 4.167 0 00-8.333 0z" stroke="#DEA515" stroke-linecap="round" stroke-linejoin="round"/><path d="M55.833 52.735V37.5a1.667 1.667 0 00-1.666-1.667H32.5a1.667 1.667 0 00-1.667 1.667v21.51m18.334.157h-3.334" stroke="#DEA515" stroke-linecap="round" stroke-linejoin="round"/><path d="M64.167 60.833H67.5a1.667 1.667 0 001.667-1.666v-9.765A6.894 6.894 0 0062.5 42.5h-6.667m13.334 15h-2.5" stroke="#DEA515" stroke-linecap="round" stroke-linejoin="round"/><path d="M69.167 50.833H62.5a1.64 1.64 0 01-1.667-1.765V42.5m-5 8.333h-25" stroke="#DEA515" stroke-linecap="round" stroke-linejoin="round"/></svg>